<svg xmlns="http://www.w3.org/2000/svg" width="360" height="200" viewBox="0 0 360 200">
  <rect width="360" height="200" rx="8" fill="#1c1408"/>

  <!-- foreground band -->
  <rect x="16" y="16" width="328" height="28" rx="4" fill="#d4a850" opacity="0.9"/>
  <rect x="16.0" y="56" width="35.8" height="40" rx="3" fill="#0e0a04"/>
  <rect x="57.8" y="56" width="35.8" height="40" rx="3" fill="#a04020"/>
  <rect x="99.5" y="56" width="35.8" height="40" rx="3" fill="#506838"/>
  <rect x="141.2" y="56" width="35.8" height="40" rx="3" fill="#c89830"/>
  <rect x="183.0" y="56" width="35.8" height="40" rx="3" fill="#384058"/>
  <rect x="224.8" y="56" width="35.8" height="40" rx="3" fill="#784038"/>
  <rect x="266.5" y="56" width="35.8" height="40" rx="3" fill="#3a5848"/>
  <rect x="308.2" y="56" width="35.8" height="40" rx="3" fill="#b8a070"/>
  <rect x="16.0" y="102" width="35.8" height="40" rx="3" fill="#382810"/>
  <rect x="57.8" y="102" width="35.8" height="40" rx="3" fill="#c85828"/>
  <rect x="99.5" y="102" width="35.8" height="40" rx="3" fill="#689848"/>
  <rect x="141.2" y="102" width="35.8" height="40" rx="3" fill="#e8b840"/>
  <rect x="183.0" y="102" width="35.8" height="40" rx="3" fill="#4a5878"/>
  <rect x="224.8" y="102" width="35.8" height="40" rx="3" fill="#985048"/>
  <rect x="266.5" y="102" width="35.8" height="40" rx="3" fill="#508868"/>
  <rect x="308.2" y="102" width="35.8" height="40" rx="3" fill="#e8d090"/>
</svg>