<svg xmlns="http://www.w3.org/2000/svg" width="360" height="200" viewBox="0 0 360 200">
  <rect width="360" height="200" rx="8" fill="#18181e"/>

  <!-- foreground band -->
  <rect x="16" y="16" width="328" height="28" rx="4" fill="#b8b8c8" opacity="0.9"/>
  <rect x="16.0" y="56" width="35.8" height="40" rx="3" fill="#0a0a10"/>
  <rect x="57.8" y="56" width="35.8" height="40" rx="3" fill="#885048"/>
  <rect x="99.5" y="56" width="35.8" height="40" rx="3" fill="#506858"/>
  <rect x="141.2" y="56" width="35.8" height="40" rx="3" fill="#988868"/>
  <rect x="183.0" y="56" width="35.8" height="40" rx="3" fill="#3a4868"/>
  <rect x="224.8" y="56" width="35.8" height="40" rx="3" fill="#685078"/>
  <rect x="266.5" y="56" width="35.8" height="40" rx="3" fill="#3a5868"/>
  <rect x="308.2" y="56" width="35.8" height="40" rx="3" fill="#a0a0b0"/>
  <rect x="16.0" y="102" width="35.8" height="40" rx="3" fill="#303038"/>
  <rect x="57.8" y="102" width="35.8" height="40" rx="3" fill="#a86858"/>
  <rect x="99.5" y="102" width="35.8" height="40" rx="3" fill="#688878"/>
  <rect x="141.2" y="102" width="35.8" height="40" rx="3" fill="#b8a878"/>
  <rect x="183.0" y="102" width="35.8" height="40" rx="3" fill="#5868a8"/>
  <rect x="224.8" y="102" width="35.8" height="40" rx="3" fill="#886898"/>
  <rect x="266.5" y="102" width="35.8" height="40" rx="3" fill="#588898"/>
  <rect x="308.2" y="102" width="35.8" height="40" rx="3" fill="#d0d0e0"/>
</svg>