<svg xmlns="http://www.w3.org/2000/svg" width="360" height="200" viewBox="0 0 360 200">
  <rect width="360" height="200" rx="8" fill="#1a1820"/>

  <!-- foreground band -->
  <rect x="16" y="16" width="328" height="28" rx="4" fill="#c8d0c0" opacity="0.9"/>
  <rect x="16.0" y="56" width="35.8" height="40" rx="3" fill="#0c0a10"/>
  <rect x="57.8" y="56" width="35.8" height="40" rx="3" fill="#d04858"/>
  <rect x="99.5" y="56" width="35.8" height="40" rx="3" fill="#48b868"/>
  <rect x="141.2" y="56" width="35.8" height="40" rx="3" fill="#e0c030"/>
  <rect x="183.0" y="56" width="35.8" height="40" rx="3" fill="#3868d0"/>
  <rect x="224.8" y="56" width="35.8" height="40" rx="3" fill="#c848a0"/>
  <rect x="266.5" y="56" width="35.8" height="40" rx="3" fill="#30b0c0"/>
  <rect x="308.2" y="56" width="35.8" height="40" rx="3" fill="#b0b8a8"/>
  <rect x="16.0" y="102" width="35.8" height="40" rx="3" fill="#383040"/>
  <rect x="57.8" y="102" width="35.8" height="40" rx="3" fill="#e86068"/>
  <rect x="99.5" y="102" width="35.8" height="40" rx="3" fill="#60d078"/>
  <rect x="141.2" y="102" width="35.8" height="40" rx="3" fill="#f0d848"/>
  <rect x="183.0" y="102" width="35.8" height="40" rx="3" fill="#5080e0"/>
  <rect x="224.8" y="102" width="35.8" height="40" rx="3" fill="#e060b8"/>
  <rect x="266.5" y="102" width="35.8" height="40" rx="3" fill="#48c8d8"/>
  <rect x="308.2" y="102" width="35.8" height="40" rx="3" fill="#d8e0d0"/>
</svg>