<svg xmlns="http://www.w3.org/2000/svg" width="360" height="200" viewBox="0 0 360 200">
  <rect width="360" height="200" rx="8" fill="#181c22"/>

  <!-- foreground band -->
  <rect x="16" y="16" width="328" height="28" rx="4" fill="#a0a8b0" opacity="0.9"/>
  <rect x="16.0" y="56" width="35.8" height="40" rx="3" fill="#181c22"/>
  <rect x="57.8" y="56" width="35.8" height="40" rx="3" fill="#7a5a5a"/>
  <rect x="99.5" y="56" width="35.8" height="40" rx="3" fill="#5a7a68"/>
  <rect x="141.2" y="56" width="35.8" height="40" rx="3" fill="#8a8a6a"/>
  <rect x="183.0" y="56" width="35.8" height="40" rx="3" fill="#4a6a8a"/>
  <rect x="224.8" y="56" width="35.8" height="40" rx="3" fill="#6a5a7a"/>
  <rect x="266.5" y="56" width="35.8" height="40" rx="3" fill="#5a7a80"/>
  <rect x="308.2" y="56" width="35.8" height="40" rx="3" fill="#9aa0a8"/>
  <rect x="16.0" y="102" width="35.8" height="40" rx="3" fill="#2a3442"/>
  <rect x="57.8" y="102" width="35.8" height="40" rx="3" fill="#a87a78"/>
  <rect x="99.5" y="102" width="35.8" height="40" rx="3" fill="#7aaa88"/>
  <rect x="141.2" y="102" width="35.8" height="40" rx="3" fill="#b0b08a"/>
  <rect x="183.0" y="102" width="35.8" height="40" rx="3" fill="#6a9ac0"/>
  <rect x="224.8" y="102" width="35.8" height="40" rx="3" fill="#8a7aa0"/>
  <rect x="266.5" y="102" width="35.8" height="40" rx="3" fill="#7aaab0"/>
  <rect x="308.2" y="102" width="35.8" height="40" rx="3" fill="#c0c8d0"/>
</svg>
