<svg xmlns="http://www.w3.org/2000/svg" width="360" height="200" viewBox="0 0 360 200">
  <rect width="360" height="200" rx="8" fill="#181c21"/>

  <!-- foreground band -->
  <rect x="16" y="16" width="328" height="28" rx="4" fill="#a0a8af" opacity="0.9"/>
  <rect x="16.0" y="56" width="35.8" height="40" rx="3" fill="#181c21"/>
  <rect x="57.8" y="56" width="35.8" height="40" rx="3" fill="#795959"/>
  <rect x="99.5" y="56" width="35.8" height="40" rx="3" fill="#597967"/>
  <rect x="141.2" y="56" width="35.8" height="40" rx="3" fill="#898969"/>
  <rect x="183.0" y="56" width="35.8" height="40" rx="3" fill="#496989"/>
  <rect x="224.8" y="56" width="35.8" height="40" rx="3" fill="#695979"/>
  <rect x="266.5" y="56" width="35.8" height="40" rx="3" fill="#597980"/>
  <rect x="308.2" y="56" width="35.8" height="40" rx="3" fill="#9aa0a8"/>
  <rect x="16.0" y="102" width="35.8" height="40" rx="3" fill="#2a3442"/>
  <rect x="57.8" y="102" width="35.8" height="40" rx="3" fill="#a87977"/>
  <rect x="99.5" y="102" width="35.8" height="40" rx="3" fill="#79aa87"/>
  <rect x="141.2" y="102" width="35.8" height="40" rx="3" fill="#afaf89"/>
  <rect x="183.0" y="102" width="35.8" height="40" rx="3" fill="#699abf"/>
  <rect x="224.8" y="102" width="35.8" height="40" rx="3" fill="#8979a0"/>
  <rect x="266.5" y="102" width="35.8" height="40" rx="3" fill="#79aaaf"/>
  <rect x="308.2" y="102" width="35.8" height="40" rx="3" fill="#bfc8cf"/>
</svg>