<svg xmlns="http://www.w3.org/2000/svg" width="360" height="200" viewBox="0 0 360 200">
  <rect width="360" height="200" rx="8" fill="#181c26"/>

  <!-- foreground band -->
  <rect x="16" y="16" width="328" height="28" rx="4" fill="#9aa0b0" opacity="0.9"/>
  <rect x="16.0" y="56" width="35.8" height="40" rx="3" fill="#0c0e16"/>
  <rect x="57.8" y="56" width="35.8" height="40" rx="3" fill="#a05030"/>
  <rect x="99.5" y="56" width="35.8" height="40" rx="3" fill="#485848"/>
  <rect x="141.2" y="56" width="35.8" height="40" rx="3" fill="#b08040"/>
  <rect x="183.0" y="56" width="35.8" height="40" rx="3" fill="#3a4868"/>
  <rect x="224.8" y="56" width="35.8" height="40" rx="3" fill="#704858"/>
  <rect x="266.5" y="56" width="35.8" height="40" rx="3" fill="#406068"/>
  <rect x="308.2" y="56" width="35.8" height="40" rx="3" fill="#8890a0"/>
  <rect x="16.0" y="102" width="35.8" height="40" rx="3" fill="#2a2e3a"/>
  <rect x="57.8" y="102" width="35.8" height="40" rx="3" fill="#c86838"/>
  <rect x="99.5" y="102" width="35.8" height="40" rx="3" fill="#608068"/>
  <rect x="141.2" y="102" width="35.8" height="40" rx="3" fill="#d8a050"/>
  <rect x="183.0" y="102" width="35.8" height="40" rx="3" fill="#5068a0"/>
  <rect x="224.8" y="102" width="35.8" height="40" rx="3" fill="#906070"/>
  <rect x="266.5" y="102" width="35.8" height="40" rx="3" fill="#5880a0"/>
  <rect x="308.2" y="102" width="35.8" height="40" rx="3" fill="#b8c0d0"/>
</svg>