<svg xmlns="http://www.w3.org/2000/svg" width="360" height="200" viewBox="0 0 360 200">
  <rect width="360" height="200" rx="8" fill="#2a2018"/>

  <!-- foreground band -->
  <rect x="16" y="16" width="328" height="28" rx="4" fill="#d8c8a0" opacity="0.9"/>
  <rect x="16.0" y="56" width="35.8" height="40" rx="3" fill="#0a0808"/>
  <rect x="57.8" y="56" width="35.8" height="40" rx="3" fill="#c85848"/>
  <rect x="99.5" y="56" width="35.8" height="40" rx="3" fill="#688050"/>
  <rect x="141.2" y="56" width="35.8" height="40" rx="3" fill="#e8b030"/>
  <rect x="183.0" y="56" width="35.8" height="40" rx="3" fill="#4858a0"/>
  <rect x="224.8" y="56" width="35.8" height="40" rx="3" fill="#b86878"/>
  <rect x="266.5" y="56" width="35.8" height="40" rx="3" fill="#488088"/>
  <rect x="308.2" y="56" width="35.8" height="40" rx="3" fill="#c0b090"/>
  <rect x="16.0" y="102" width="35.8" height="40" rx="3" fill="#483828"/>
  <rect x="57.8" y="102" width="35.8" height="40" rx="3" fill="#e06858"/>
  <rect x="99.5" y="102" width="35.8" height="40" rx="3" fill="#88a060"/>
  <rect x="141.2" y="102" width="35.8" height="40" rx="3" fill="#f0c840"/>
  <rect x="183.0" y="102" width="35.8" height="40" rx="3" fill="#6070b8"/>
  <rect x="224.8" y="102" width="35.8" height="40" rx="3" fill="#d07888"/>
  <rect x="266.5" y="102" width="35.8" height="40" rx="3" fill="#60a0a0"/>
  <rect x="308.2" y="102" width="35.8" height="40" rx="3" fill="#e8d8b8"/>
</svg>