<svg xmlns="http://www.w3.org/2000/svg" width="360" height="200" viewBox="0 0 360 200">
  <rect width="360" height="200" rx="8" fill="#1c1010"/>

  <!-- foreground band -->
  <rect x="16" y="16" width="328" height="28" rx="4" fill="#c8a870" opacity="0.9"/>
  <rect x="16.0" y="56" width="35.8" height="40" rx="3" fill="#080404"/>
  <rect x="57.8" y="56" width="35.8" height="40" rx="3" fill="#983028"/>
  <rect x="99.5" y="56" width="35.8" height="40" rx="3" fill="#386838"/>
  <rect x="141.2" y="56" width="35.8" height="40" rx="3" fill="#b89030"/>
  <rect x="183.0" y="56" width="35.8" height="40" rx="3" fill="#2a3050"/>
  <rect x="224.8" y="56" width="35.8" height="40" rx="3" fill="#784060"/>
  <rect x="266.5" y="56" width="35.8" height="40" rx="3" fill="#305048"/>
  <rect x="308.2" y="56" width="35.8" height="40" rx="3" fill="#988868"/>
  <rect x="16.0" y="102" width="35.8" height="40" rx="3" fill="#382018"/>
  <rect x="57.8" y="102" width="35.8" height="40" rx="3" fill="#b84030"/>
  <rect x="99.5" y="102" width="35.8" height="40" rx="3" fill="#509848"/>
  <rect x="141.2" y="102" width="35.8" height="40" rx="3" fill="#d0a840"/>
  <rect x="183.0" y="102" width="35.8" height="40" rx="3" fill="#3a4870"/>
  <rect x="224.8" y="102" width="35.8" height="40" rx="3" fill="#985878"/>
  <rect x="266.5" y="102" width="35.8" height="40" rx="3" fill="#487068"/>
  <rect x="308.2" y="102" width="35.8" height="40" rx="3" fill="#c8b890"/>
</svg>