<svg xmlns="http://www.w3.org/2000/svg" width="360" height="200" viewBox="0 0 360 200">
  <rect width="360" height="200" rx="8" fill="#1a1c14"/>

  <!-- foreground band -->
  <rect x="16" y="16" width="328" height="28" rx="4" fill="#b8b498" opacity="0.9"/>
  <rect x="16.0" y="56" width="35.8" height="40" rx="3" fill="#1a1c14"/>
  <rect x="57.8" y="56" width="35.8" height="40" rx="3" fill="#8a5a38"/>
  <rect x="99.5" y="56" width="35.8" height="40" rx="3" fill="#4a6a32"/>
  <rect x="141.2" y="56" width="35.8" height="40" rx="3" fill="#9a8a48"/>
  <rect x="183.0" y="56" width="35.8" height="40" rx="3" fill="#3a4a38"/>
  <rect x="224.8" y="56" width="35.8" height="40" rx="3" fill="#6a4a42"/>
  <rect x="266.5" y="56" width="35.8" height="40" rx="3" fill="#4a6a5a"/>
  <rect x="308.2" y="56" width="35.8" height="40" rx="3" fill="#a8a488"/>
  <rect x="16.0" y="102" width="35.8" height="40" rx="3" fill="#2e3222"/>
  <rect x="57.8" y="102" width="35.8" height="40" rx="3" fill="#b87a52"/>
  <rect x="99.5" y="102" width="35.8" height="40" rx="3" fill="#6a9a52"/>
  <rect x="141.2" y="102" width="35.8" height="40" rx="3" fill="#c0b068"/>
  <rect x="183.0" y="102" width="35.8" height="40" rx="3" fill="#5a7a5a"/>
  <rect x="224.8" y="102" width="35.8" height="40" rx="3" fill="#8a6a62"/>
  <rect x="266.5" y="102" width="35.8" height="40" rx="3" fill="#6a9a7a"/>
  <rect x="308.2" y="102" width="35.8" height="40" rx="3" fill="#d0ccb0"/>
</svg>
