<svg xmlns="http://www.w3.org/2000/svg" width="360" height="200" viewBox="0 0 360 200">
  <rect width="360" height="200" rx="8" fill="#f5f5f5"/>

  <!-- foreground band -->
  <rect x="16" y="16" width="328" height="28" rx="4" fill="#2a2a2e" opacity="0.9"/>
  <rect x="16.0" y="56" width="35.8" height="40" rx="3" fill="#2a2a2e"/>
  <rect x="57.8" y="56" width="35.8" height="40" rx="3" fill="#c83030"/>
  <rect x="99.5" y="56" width="35.8" height="40" rx="3" fill="#28a038"/>
  <rect x="141.2" y="56" width="35.8" height="40" rx="3" fill="#d8a020"/>
  <rect x="183.0" y="56" width="35.8" height="40" rx="3" fill="#2868c8"/>
  <rect x="224.8" y="56" width="35.8" height="40" rx="3" fill="#c038a0"/>
  <rect x="266.5" y="56" width="35.8" height="40" rx="3" fill="#2098a0"/>
  <rect x="308.2" y="56" width="35.8" height="40" rx="3" fill="#d0d0d0"/>
  <rect x="16.0" y="102" width="35.8" height="40" rx="3" fill="#606068"/>
  <rect x="57.8" y="102" width="35.8" height="40" rx="3" fill="#e84848"/>
  <rect x="99.5" y="102" width="35.8" height="40" rx="3" fill="#38c050"/>
  <rect x="141.2" y="102" width="35.8" height="40" rx="3" fill="#f0b830"/>
  <rect x="183.0" y="102" width="35.8" height="40" rx="3" fill="#4088e8"/>
  <rect x="224.8" y="102" width="35.8" height="40" rx="3" fill="#e050b8"/>
  <rect x="266.5" y="102" width="35.8" height="40" rx="3" fill="#38b8c0"/>
  <rect x="308.2" y="102" width="35.8" height="40" rx="3" fill="#e8e8e8"/>
</svg>