<svg xmlns="http://www.w3.org/2000/svg" width="360" height="200" viewBox="0 0 360 200">
  <rect width="360" height="200" rx="8" fill="#f0f2f5"/>

  <!-- foreground band -->
  <rect x="16" y="16" width="328" height="28" rx="4" fill="#1c1c20" opacity="0.9"/>
  <rect x="16.0" y="56" width="35.8" height="40" rx="3" fill="#1c1c20"/>
  <rect x="57.8" y="56" width="35.8" height="40" rx="3" fill="#d84010"/>
  <rect x="99.5" y="56" width="35.8" height="40" rx="3" fill="#489030"/>
  <rect x="141.2" y="56" width="35.8" height="40" rx="3" fill="#b8a800"/>
  <rect x="183.0" y="56" width="35.8" height="40" rx="3" fill="#3048b8"/>
  <rect x="224.8" y="56" width="35.8" height="40" rx="3" fill="#c828b0"/>
  <rect x="266.5" y="56" width="35.8" height="40" rx="3" fill="#0888b0"/>
  <rect x="308.2" y="56" width="35.8" height="40" rx="3" fill="#b8bcc0"/>
  <rect x="16.0" y="102" width="35.8" height="40" rx="3" fill="#505058"/>
  <rect x="57.8" y="102" width="35.8" height="40" rx="3" fill="#f06028"/>
  <rect x="99.5" y="102" width="35.8" height="40" rx="3" fill="#60b848"/>
  <rect x="141.2" y="102" width="35.8" height="40" rx="3" fill="#d8c800"/>
  <rect x="183.0" y="102" width="35.8" height="40" rx="3" fill="#4860d8"/>
  <rect x="224.8" y="102" width="35.8" height="40" rx="3" fill="#e840d0"/>
  <rect x="266.5" y="102" width="35.8" height="40" rx="3" fill="#20a8d0"/>
  <rect x="308.2" y="102" width="35.8" height="40" rx="3" fill="#d8dce0"/>
</svg>