<svg xmlns="http://www.w3.org/2000/svg" width="360" height="200" viewBox="0 0 360 200">
  <rect width="360" height="200" rx="8" fill="#1d130f"/>

  <!-- foreground band -->
  <rect x="16" y="16" width="328" height="28" rx="4" fill="#d8c3a0" opacity="0.9"/>
  <rect x="16.0" y="56" width="35.8" height="40" rx="3" fill="#1d130f"/>
  <rect x="57.8" y="56" width="35.8" height="40" rx="3" fill="#a83a28"/>
  <rect x="99.5" y="56" width="35.8" height="40" rx="3" fill="#49793a"/>
  <rect x="141.2" y="56" width="35.8" height="40" rx="3" fill="#c8873a"/>
  <rect x="183.0" y="56" width="35.8" height="40" rx="3" fill="#3a5969"/>
  <rect x="224.8" y="56" width="35.8" height="40" rx="3" fill="#893a49"/>
  <rect x="266.5" y="56" width="35.8" height="40" rx="3" fill="#498969"/>
  <rect x="308.2" y="56" width="35.8" height="40" rx="3" fill="#c8b897"/>
  <rect x="16.0" y="102" width="35.8" height="40" rx="3" fill="#3a2818"/>
  <rect x="57.8" y="102" width="35.8" height="40" rx="3" fill="#d8593f"/>
  <rect x="99.5" y="102" width="35.8" height="40" rx="3" fill="#69aa59"/>
  <rect x="141.2" y="102" width="35.8" height="40" rx="3" fill="#e8a857"/>
  <rect x="183.0" y="102" width="35.8" height="40" rx="3" fill="#59899a"/>
  <rect x="224.8" y="102" width="35.8" height="40" rx="3" fill="#b85969"/>
  <rect x="266.5" y="102" width="35.8" height="40" rx="3" fill="#69b889"/>
  <rect x="308.2" y="102" width="35.8" height="40" rx="3" fill="#e8d8bf"/>
</svg>