<svg xmlns="http://www.w3.org/2000/svg" width="360" height="200" viewBox="0 0 360 200">
  <rect width="360" height="200" rx="8" fill="#1e1410"/>

  <!-- foreground band -->
  <rect x="16" y="16" width="328" height="28" rx="4" fill="#d8c4a0" opacity="0.9"/>
  <rect x="16.0" y="56" width="35.8" height="40" rx="3" fill="#1e1410"/>
  <rect x="57.8" y="56" width="35.8" height="40" rx="3" fill="#a83a28"/>
  <rect x="99.5" y="56" width="35.8" height="40" rx="3" fill="#4a7a3a"/>
  <rect x="141.2" y="56" width="35.8" height="40" rx="3" fill="#c8883a"/>
  <rect x="183.0" y="56" width="35.8" height="40" rx="3" fill="#3a5a6a"/>
  <rect x="224.8" y="56" width="35.8" height="40" rx="3" fill="#8a3a4a"/>
  <rect x="266.5" y="56" width="35.8" height="40" rx="3" fill="#4a8a6a"/>
  <rect x="308.2" y="56" width="35.8" height="40" rx="3" fill="#c8b898"/>
  <rect x="16.0" y="102" width="35.8" height="40" rx="3" fill="#3a2818"/>
  <rect x="57.8" y="102" width="35.8" height="40" rx="3" fill="#d85a40"/>
  <rect x="99.5" y="102" width="35.8" height="40" rx="3" fill="#6aaa5a"/>
  <rect x="141.2" y="102" width="35.8" height="40" rx="3" fill="#e8a858"/>
  <rect x="183.0" y="102" width="35.8" height="40" rx="3" fill="#5a8a9a"/>
  <rect x="224.8" y="102" width="35.8" height="40" rx="3" fill="#b85a6a"/>
  <rect x="266.5" y="102" width="35.8" height="40" rx="3" fill="#6ab88a"/>
  <rect x="308.2" y="102" width="35.8" height="40" rx="3" fill="#e8d8c0"/>
</svg>
