<svg xmlns="http://www.w3.org/2000/svg" width="360" height="200" viewBox="0 0 360 200">
  <rect width="360" height="200" rx="8" fill="#181418"/>

  <!-- foreground band -->
  <rect x="16" y="16" width="328" height="28" rx="4" fill="#d0c8b8" opacity="0.9"/>
  <rect x="16.0" y="56" width="35.8" height="40" rx="3" fill="#0a080c"/>
  <rect x="57.8" y="56" width="35.8" height="40" rx="3" fill="#d04048"/>
  <rect x="99.5" y="56" width="35.8" height="40" rx="3" fill="#90c828"/>
  <rect x="141.2" y="56" width="35.8" height="40" rx="3" fill="#d0b028"/>
  <rect x="183.0" y="56" width="35.8" height="40" rx="3" fill="#3058c8"/>
  <rect x="224.8" y="56" width="35.8" height="40" rx="3" fill="#e03888"/>
  <rect x="266.5" y="56" width="35.8" height="40" rx="3" fill="#28a8a0"/>
  <rect x="308.2" y="56" width="35.8" height="40" rx="3" fill="#a8a098"/>
  <rect x="16.0" y="102" width="35.8" height="40" rx="3" fill="#382838"/>
  <rect x="57.8" y="102" width="35.8" height="40" rx="3" fill="#f05058"/>
  <rect x="99.5" y="102" width="35.8" height="40" rx="3" fill="#a8e030"/>
  <rect x="141.2" y="102" width="35.8" height="40" rx="3" fill="#e8c830"/>
  <rect x="183.0" y="102" width="35.8" height="40" rx="3" fill="#4070e8"/>
  <rect x="224.8" y="102" width="35.8" height="40" rx="3" fill="#f050a0"/>
  <rect x="266.5" y="102" width="35.8" height="40" rx="3" fill="#40c8c0"/>
  <rect x="308.2" y="102" width="35.8" height="40" rx="3" fill="#d8d0c8"/>
</svg>