<svg xmlns="http://www.w3.org/2000/svg" width="360" height="200" viewBox="0 0 360 200">
  <rect width="360" height="200" rx="8" fill="#1a1510"/>

  <!-- foreground band -->
  <rect x="16" y="16" width="328" height="28" rx="4" fill="#c4b498" opacity="0.9"/>
  <rect x="16.0" y="56" width="35.8" height="40" rx="3" fill="#0d0b08"/>
  <rect x="57.8" y="56" width="35.8" height="40" rx="3" fill="#8b5e3c"/>
  <rect x="99.5" y="56" width="35.8" height="40" rx="3" fill="#5a6040"/>
  <rect x="141.2" y="56" width="35.8" height="40" rx="3" fill="#967838"/>
  <rect x="183.0" y="56" width="35.8" height="40" rx="3" fill="#3a3540"/>
  <rect x="224.8" y="56" width="35.8" height="40" rx="3" fill="#6b4a48"/>
  <rect x="266.5" y="56" width="35.8" height="40" rx="3" fill="#3e4a45"/>
  <rect x="308.2" y="56" width="35.8" height="40" rx="3" fill="#a89880"/>
  <rect x="16.0" y="102" width="35.8" height="40" rx="3" fill="#2c2419"/>
  <rect x="57.8" y="102" width="35.8" height="40" rx="3" fill="#b06a42"/>
  <rect x="99.5" y="102" width="35.8" height="40" rx="3" fill="#707a4a"/>
  <rect x="141.2" y="102" width="35.8" height="40" rx="3" fill="#b89858"/>
  <rect x="183.0" y="102" width="35.8" height="40" rx="3" fill="#585268"/>
  <rect x="224.8" y="102" width="35.8" height="40" rx="3" fill="#8a6058"/>
  <rect x="266.5" y="102" width="35.8" height="40" rx="3" fill="#587068"/>
  <rect x="308.2" y="102" width="35.8" height="40" rx="3" fill="#d4c8b0"/>
</svg>