<svg xmlns="http://www.w3.org/2000/svg" width="360" height="200" viewBox="0 0 360 200">
  <rect width="360" height="200" rx="8" fill="#f5f5f5"/>

  <!-- foreground band -->
  <rect x="16" y="16" width="328" height="28" rx="4" fill="#1a1a1e" opacity="0.9"/>
  <rect x="16.0" y="56" width="35.8" height="40" rx="3" fill="#1a1a1e"/>
  <rect x="57.8" y="56" width="35.8" height="40" rx="3" fill="#d82830"/>
  <rect x="99.5" y="56" width="35.8" height="40" rx="3" fill="#18a038"/>
  <rect x="141.2" y="56" width="35.8" height="40" rx="3" fill="#e0a010"/>
  <rect x="183.0" y="56" width="35.8" height="40" rx="3" fill="#2868d8"/>
  <rect x="224.8" y="56" width="35.8" height="40" rx="3" fill="#c830a0"/>
  <rect x="266.5" y="56" width="35.8" height="40" rx="3" fill="#0898b8"/>
  <rect x="308.2" y="56" width="35.8" height="40" rx="3" fill="#c0c0c8"/>
  <rect x="16.0" y="102" width="35.8" height="40" rx="3" fill="#505058"/>
  <rect x="57.8" y="102" width="35.8" height="40" rx="3" fill="#f84050"/>
  <rect x="99.5" y="102" width="35.8" height="40" rx="3" fill="#28c850"/>
  <rect x="141.2" y="102" width="35.8" height="40" rx="3" fill="#f8c020"/>
  <rect x="183.0" y="102" width="35.8" height="40" rx="3" fill="#4088f8"/>
  <rect x="224.8" y="102" width="35.8" height="40" rx="3" fill="#e848c0"/>
  <rect x="266.5" y="102" width="35.8" height="40" rx="3" fill="#20b8d8"/>
  <rect x="308.2" y="102" width="35.8" height="40" rx="3" fill="#e0e0e8"/>
</svg>