<svg xmlns="http://www.w3.org/2000/svg" width="360" height="200" viewBox="0 0 360 200">
  <rect width="360" height="200" rx="8" fill="#201c1a"/>

  <!-- foreground band -->
  <rect x="16" y="16" width="328" height="28" rx="4" fill="#c8b8a8" opacity="0.9"/>
  <rect x="16.0" y="56" width="35.8" height="40" rx="3" fill="#0c0a08"/>
  <rect x="57.8" y="56" width="35.8" height="40" rx="3" fill="#c07068"/>
  <rect x="99.5" y="56" width="35.8" height="40" rx="3" fill="#608868"/>
  <rect x="141.2" y="56" width="35.8" height="40" rx="3" fill="#c8a040"/>
  <rect x="183.0" y="56" width="35.8" height="40" rx="3" fill="#3878a8"/>
  <rect x="224.8" y="56" width="35.8" height="40" rx="3" fill="#a06880"/>
  <rect x="266.5" y="56" width="35.8" height="40" rx="3" fill="#38a0a0"/>
  <rect x="308.2" y="56" width="35.8" height="40" rx="3" fill="#a09888"/>
  <rect x="16.0" y="102" width="35.8" height="40" rx="3" fill="#3a3430"/>
  <rect x="57.8" y="102" width="35.8" height="40" rx="3" fill="#d88878"/>
  <rect x="99.5" y="102" width="35.8" height="40" rx="3" fill="#78a880"/>
  <rect x="141.2" y="102" width="35.8" height="40" rx="3" fill="#e0b850"/>
  <rect x="183.0" y="102" width="35.8" height="40" rx="3" fill="#4890c0"/>
  <rect x="224.8" y="102" width="35.8" height="40" rx="3" fill="#b88098"/>
  <rect x="266.5" y="102" width="35.8" height="40" rx="3" fill="#50b8b8"/>
  <rect x="308.2" y="102" width="35.8" height="40" rx="3" fill="#d8ccc0"/>
</svg>