<svg xmlns="http://www.w3.org/2000/svg" width="360" height="200" viewBox="0 0 360 200">
  <rect width="360" height="200" rx="8" fill="#ebe9dc"/>

  <!-- foreground band -->
  <rect x="16" y="16" width="328" height="28" rx="4" fill="#3d3f2e" opacity="0.9"/>
  <rect x="16.0" y="56" width="35.8" height="40" rx="3" fill="#2e2f22"/>
  <rect x="57.8" y="56" width="35.8" height="40" rx="3" fill="#ad411c"/>
  <rect x="99.5" y="56" width="35.8" height="40" rx="3" fill="#556930"/>
  <rect x="141.2" y="56" width="35.8" height="40" rx="3" fill="#9d7b2a"/>
  <rect x="183.0" y="56" width="35.8" height="40" rx="3" fill="#3b6692"/>
  <rect x="224.8" y="56" width="35.8" height="40" rx="3" fill="#8e4c5c"/>
  <rect x="266.5" y="56" width="35.8" height="40" rx="3" fill="#387076"/>
  <rect x="308.2" y="56" width="35.8" height="40" rx="3" fill="#d3d1c4"/>
  <rect x="16.0" y="102" width="35.8" height="40" rx="3" fill="#646554"/>
  <rect x="57.8" y="102" width="35.8" height="40" rx="3" fill="#cc572a"/>
  <rect x="99.5" y="102" width="35.8" height="40" rx="3" fill="#798848"/>
  <rect x="141.2" y="102" width="35.8" height="40" rx="3" fill="#bfa14c"/>
  <rect x="183.0" y="102" width="35.8" height="40" rx="3" fill="#5985aa"/>
  <rect x="224.8" y="102" width="35.8" height="40" rx="3" fill="#ae6979"/>
  <rect x="266.5" y="102" width="35.8" height="40" rx="3" fill="#5d9096"/>
  <rect x="308.2" y="102" width="35.8" height="40" rx="3" fill="#f7f5ec"/>
</svg>