<svg xmlns="http://www.w3.org/2000/svg" width="360" height="200" viewBox="0 0 360 200">
  <rect width="360" height="200" rx="8" fill="#ede8d8"/>

  <!-- foreground band -->
  <rect x="16" y="16" width="328" height="28" rx="4" fill="#384030" opacity="0.9"/>
  <rect x="16.0" y="56" width="35.8" height="40" rx="3" fill="#2a3028"/>
  <rect x="57.8" y="56" width="35.8" height="40" rx="3" fill="#c03020"/>
  <rect x="99.5" y="56" width="35.8" height="40" rx="3" fill="#2a7830"/>
  <rect x="141.2" y="56" width="35.8" height="40" rx="3" fill="#b89830"/>
  <rect x="183.0" y="56" width="35.8" height="40" rx="3" fill="#3060a0"/>
  <rect x="224.8" y="56" width="35.8" height="40" rx="3" fill="#984068"/>
  <rect x="266.5" y="56" width="35.8" height="40" rx="3" fill="#207868"/>
  <rect x="308.2" y="56" width="35.8" height="40" rx="3" fill="#d8d0c0"/>
  <rect x="16.0" y="102" width="35.8" height="40" rx="3" fill="#505848"/>
  <rect x="57.8" y="102" width="35.8" height="40" rx="3" fill="#e04030"/>
  <rect x="99.5" y="102" width="35.8" height="40" rx="3" fill="#38a040"/>
  <rect x="141.2" y="102" width="35.8" height="40" rx="3" fill="#d8b838"/>
  <rect x="183.0" y="102" width="35.8" height="40" rx="3" fill="#4080c8"/>
  <rect x="224.8" y="102" width="35.8" height="40" rx="3" fill="#c05080"/>
  <rect x="266.5" y="102" width="35.8" height="40" rx="3" fill="#30a088"/>
  <rect x="308.2" y="102" width="35.8" height="40" rx="3" fill="#f5f0e0"/>
</svg>