<svg xmlns="http://www.w3.org/2000/svg" width="360" height="200" viewBox="0 0 360 200">
  <rect width="360" height="200" rx="8" fill="#fafafa"/>

  <!-- foreground band -->
  <rect x="16" y="16" width="328" height="28" rx="4" fill="#1a1a1a" opacity="0.9"/>
  <rect x="16.0" y="56" width="35.8" height="40" rx="3" fill="#1a1a1a"/>
  <rect x="57.8" y="56" width="35.8" height="40" rx="3" fill="#b82020"/>
  <rect x="99.5" y="56" width="35.8" height="40" rx="3" fill="#808880"/>
  <rect x="141.2" y="56" width="35.8" height="40" rx="3" fill="#888078"/>
  <rect x="183.0" y="56" width="35.8" height="40" rx="3" fill="#787880"/>
  <rect x="224.8" y="56" width="35.8" height="40" rx="3" fill="#887078"/>
  <rect x="266.5" y="56" width="35.8" height="40" rx="3" fill="#788080"/>
  <rect x="308.2" y="56" width="35.8" height="40" rx="3" fill="#c8c8c8"/>
  <rect x="16.0" y="102" width="35.8" height="40" rx="3" fill="#484848"/>
  <rect x="57.8" y="102" width="35.8" height="40" rx="3" fill="#e03030"/>
  <rect x="99.5" y="102" width="35.8" height="40" rx="3" fill="#90a090"/>
  <rect x="141.2" y="102" width="35.8" height="40" rx="3" fill="#a09888"/>
  <rect x="183.0" y="102" width="35.8" height="40" rx="3" fill="#8888a0"/>
  <rect x="224.8" y="102" width="35.8" height="40" rx="3" fill="#a08890"/>
  <rect x="266.5" y="102" width="35.8" height="40" rx="3" fill="#88a0a0"/>
  <rect x="308.2" y="102" width="35.8" height="40" rx="3" fill="#e0e0e0"/>
</svg>