<svg xmlns="http://www.w3.org/2000/svg" width="360" height="200" viewBox="0 0 360 200">
  <rect width="360" height="200" rx="8" fill="#f0e0c8"/>

  <!-- foreground band -->
  <rect x="16" y="16" width="328" height="28" rx="4" fill="#483818" opacity="0.9"/>
  <rect x="16.0" y="56" width="35.8" height="40" rx="3" fill="#181008"/>
  <rect x="57.8" y="56" width="35.8" height="40" rx="3" fill="#b84820"/>
  <rect x="99.5" y="56" width="35.8" height="40" rx="3" fill="#587830"/>
  <rect x="141.2" y="56" width="35.8" height="40" rx="3" fill="#c88818"/>
  <rect x="183.0" y="56" width="35.8" height="40" rx="3" fill="#405080"/>
  <rect x="224.8" y="56" width="35.8" height="40" rx="3" fill="#984058"/>
  <rect x="266.5" y="56" width="35.8" height="40" rx="3" fill="#387868"/>
  <rect x="308.2" y="56" width="35.8" height="40" rx="3" fill="#705830"/>
  <rect x="16.0" y="102" width="35.8" height="40" rx="3" fill="#604818"/>
  <rect x="57.8" y="102" width="35.8" height="40" rx="3" fill="#d86038"/>
  <rect x="99.5" y="102" width="35.8" height="40" rx="3" fill="#78a048"/>
  <rect x="141.2" y="102" width="35.8" height="40" rx="3" fill="#e8a828"/>
  <rect x="183.0" y="102" width="35.8" height="40" rx="3" fill="#5870a0"/>
  <rect x="224.8" y="102" width="35.8" height="40" rx="3" fill="#b85870"/>
  <rect x="266.5" y="102" width="35.8" height="40" rx="3" fill="#489888"/>
  <rect x="308.2" y="102" width="35.8" height="40" rx="3" fill="#504020"/>
</svg>