<svg xmlns="http://www.w3.org/2000/svg" width="360" height="200" viewBox="0 0 360 200">
  <rect width="360" height="200" rx="8" fill="#181210"/>

  <!-- foreground band -->
  <rect x="16" y="16" width="328" height="28" rx="4" fill="#c8a878" opacity="0.9"/>
  <rect x="16.0" y="56" width="35.8" height="40" rx="3" fill="#0c0a08"/>
  <rect x="57.8" y="56" width="35.8" height="40" rx="3" fill="#a85838"/>
  <rect x="99.5" y="56" width="35.8" height="40" rx="3" fill="#587048"/>
  <rect x="141.2" y="56" width="35.8" height="40" rx="3" fill="#b08830"/>
  <rect x="183.0" y="56" width="35.8" height="40" rx="3" fill="#384058"/>
  <rect x="224.8" y="56" width="35.8" height="40" rx="3" fill="#784840"/>
  <rect x="266.5" y="56" width="35.8" height="40" rx="3" fill="#405850"/>
  <rect x="308.2" y="56" width="35.8" height="40" rx="3" fill="#a89878"/>
  <rect x="16.0" y="102" width="35.8" height="40" rx="3" fill="#302818"/>
  <rect x="57.8" y="102" width="35.8" height="40" rx="3" fill="#c86848"/>
  <rect x="99.5" y="102" width="35.8" height="40" rx="3" fill="#70884a"/>
  <rect x="141.2" y="102" width="35.8" height="40" rx="3" fill="#d0a848"/>
  <rect x="183.0" y="102" width="35.8" height="40" rx="3" fill="#506878"/>
  <rect x="224.8" y="102" width="35.8" height="40" rx="3" fill="#986058"/>
  <rect x="266.5" y="102" width="35.8" height="40" rx="3" fill="#587868"/>
  <rect x="308.2" y="102" width="35.8" height="40" rx="3" fill="#d8c8a0"/>
</svg>