<svg xmlns="http://www.w3.org/2000/svg" width="360" height="200" viewBox="0 0 360 200">
  <rect width="360" height="200" rx="8" fill="#16191e"/>

  <!-- foreground band -->
  <rect x="16" y="16" width="328" height="28" rx="4" fill="#d6d2dd" opacity="0.9"/>
  <rect x="16.0" y="56" width="35.8" height="40" rx="3" fill="#22232c"/>
  <rect x="57.8" y="56" width="35.8" height="40" rx="3" fill="#cf7d96"/>
  <rect x="99.5" y="56" width="35.8" height="40" rx="3" fill="#74a890"/>
  <rect x="141.2" y="56" width="35.8" height="40" rx="3" fill="#c7a767"/>
  <rect x="183.0" y="56" width="35.8" height="40" rx="3" fill="#5f82bf"/>
  <rect x="224.8" y="56" width="35.8" height="40" rx="3" fill="#8f7bc0"/>
  <rect x="266.5" y="56" width="35.8" height="40" rx="3" fill="#62a8be"/>
  <rect x="308.2" y="56" width="35.8" height="40" rx="3" fill="#d6d2dd"/>
  <rect x="16.0" y="102" width="35.8" height="40" rx="3" fill="#474a5c"/>
  <rect x="57.8" y="102" width="35.8" height="40" rx="3" fill="#e8a0b4"/>
  <rect x="99.5" y="102" width="35.8" height="40" rx="3" fill="#98c8b2"/>
  <rect x="141.2" y="102" width="35.8" height="40" rx="3" fill="#e2c78c"/>
  <rect x="183.0" y="102" width="35.8" height="40" rx="3" fill="#82a3d8"/>
  <rect x="224.8" y="102" width="35.8" height="40" rx="3" fill="#ad9bd6"/>
  <rect x="266.5" y="102" width="35.8" height="40" rx="3" fill="#88c6d8"/>
  <rect x="308.2" y="102" width="35.8" height="40" rx="3" fill="#f1eef4"/>
</svg>
